# xmcd CD database file generated by Grip 2.96
# 
# Track frame offsets:
#       182
#       12785
#       25200
#       36962
#       47915
#       58737
#       69947
#       81830
#       94035
#       103995
#       111625
#       121380
#       130195
#       140415
#       151600
#       162832
# 
# Disc length: 2301 seconds
# 
# Revision: 0
# Processed by: cddbd v1.4PL0 Copyright (c) Steve Scherf et al.
# Submitted via: Grip 2.96
# 
DISCID=d508fb10
DTITLE=Johnny Cash - The wonderful music of Johnny Cash
DYEAR=1900
DGENRE=
TTITLE0=Folsom Prison Blues
TTITLE1=I walk the line
TTITLE2=So doggone lonesome
TTITLE3=Cry, cry, cry
TTITLE4=Train of Love
TTITLE5=Don't make me go
TTITLE6=Home of the blues
TTITLE7=Give my love to Rose
TTITLE8=Ballad of a Teenage Queen
TTITLE9=Come in stranger
TTITLE10=It's just about time
TTITLE11=Katy too
TTITLE12=Straight A's in love
TTITLE13=Mean eyed cat
TTITLE14=Oh lonesome me
TTITLE15=Rock Island Line
EXTD=
EXTT0=
EXTT1=
EXTT2=
EXTT3=
EXTT4=
EXTT5=
EXTT6=
EXTT7=
EXTT8=
EXTT9=
EXTT10=
EXTT11=
EXTT12=
EXTT13=
EXTT14=
EXTT15=
PLAYORDER=
